<svg xmlns="http://www.w3.org/2000/svg" xmlns:xlink="http://www.w3.org/1999/xlink" width="300" height="300" viewBox="2612770.72905278 1709886.9755916102 385627.2580721034 611385.615506039" preserveAspectRatio="xMinYMin meet"><g transform="matrix(1,0,0,-1,0,4031159.5666892594)"><path fill-rule="evenodd" fill="#66cc99" stroke="#555555" stroke-width="4075.9041033735934" opacity="0.6" d="M 2831438.0533861904,1912762.9341540644 L 2830052.450995674,1912557.7085508325 L 2828625.4810949187,1911839.7733170413 L 2824196.527419894,1909614.2118277636 L 2823962.34620912,1909240.0720361746 L 2822938.223846082,1907966.3086790307 L 2822491.0405417914,1907254.2549380707 L 2821137.925486062,1903688.874127599 L 2820453.1196146803,1901256.7449927798 L 2820264.252377128,1900147.3921050087 L 2820217.1854868727,1899254.5635096857 L 2820494.4241144797,1898480.1767323369 L 2820990.0930588646,1898024.8780492116 L 2821412.631096283,1897527.9044794408 L 2821503.6545047234,1896632.4899023671 L 2820730.003835638,1895236.255025914 L 2816095.091484285,1890910.2052695067 L 2813419.5394152887,1885810.5142248697 L 2812318.193793175,1884734.5822448824 L 2813005.5959126903,1883084.198272022 L 2812652.5887821503,1881851.8478158026 L 2811578.1019390263,1880840.1130986777 L 2810082.904856356,1879829.5998649397 L 2811130.021455312,1878972.7143358963 L 2813183.476929194,1876635.4774271236 L 2819828.2376139406,1862947.17508004 L 2820060.5920238337,1862230.9608415004 L 2820316.8221751517,1860661.9568356245 L 2820549.6229006853,1859901.7444622163 L 2821012.4665296925,1859156.0155577802 L 2822249.8056152463,1857736.7062805092 L 2822597.865618325,1857152.444620377 L 2824250.135728551,1847563.6858020811 L 2824929.8958100174,1846583.6431569336 L 2825869.890594855,1845229.0807533076 L 2827168.3186385087,1844908.4700767696 L 2829427.471140594,1844863.8059675386 L 2831706.384287454,1845328.0990769246 L 2833056.488077717,1846540.8181886817 L 2833486.62935875,1846284.5967572504 L 2833730.2418508027,1846205.660603056 L 2836101.23453446,1846374.9241883273 L 2838535.1627955833,1846032.7420139587 L 2839533.1178671727,1844926.7357844743 L 2839758.239002317,1844677.316154228 L 2838265.102703617,1841788.3983740038 L 2837265.8224387066,1840334.0158949369 L 2835375.780971761,1836979.1011559563 L 2833107.9661416113,1834056.0143469688 L 2831692.838309788,1830945.202212995 L 2830609.936989418,1829774.0421183216 L 2829370.7206972917,1827305.9213484735 L 2827137.557491868,1827548.328392158 L 2822680.3438688912,1830658.393616859 L 2821222.427689401,1831144.632030291 L 2820303.498257207,1830490.8945311948 L 2818990.8662585635,1828433.2203000085 L 2817860.664804502,1827453.1178350952 L 2817131.293284756,1827183.9647103732 L 2815937.059543759,1827121.3093417238 L 2814756.875050434,1826809.474787815 L 2813722.5604172107,1827188.080801761 L 2812698.524921315,1827775.5116720342 L 2811601.351125555,1828119.1645803356 L 2810549.3833511453,1827708.1510084153 L 2807703.698591998,1827784.7949483881 L 2806980.5619860836,1827277.7683870068 L 2806849.9074424654,1826393.4462059075 L 2806900.357350508,1825303.133990629 L 2806713.1746589704,1824188.62608427 L 2805865.863448279,1822376.716905889 L 2802941.472356473,1817759.696469739 L 2801229.6556432513,1814287.041603341 L 2797991.5943352804,1810632.0491999916 L 2788698.293018349,1805836.7309549542 L 2786715.9854972363,1803977.1496467146 L 2784873.9944188786,1800994.5245015041 L 2783037.167879449,1795964.6147407994 L 2782244.3677504263,1794440.6719970615 L 2781470.7250536564,1793709.7307757353 L 2778685.811556864,1791810.5774218882 L 2777757.019626462,1791462.2256768832 L 2777842.6391816316,1790747.301201284 L 2777665.4124385356,1790231.7477662119 L 2777381.3939722567,1789788.1224656934 L 2777167.8563813297,1789278.151206462 L 2776029.2215192243,1788439.626702292 L 2775661.785237019,1788068.3735580621 L 2775475.7336573508,1786924.5524488809 L 2775580.7775271065,1786765.0617410874 L 2775923.693877069,1786702.283748164 L 2776068.928466594,1785111.4703299156 L 2775992.8839476355,1784361.1724761557 L 2776044.9830700597,1783686.410402809 L 2776092.8728226097,1783561.2390793855 L 2776579.827321252,1782288.8783902517 L 2777100.890799636,1781434.0809245019 L 2778331.9424421564,1779865.255273308 L 2778673.2101289304,1779090.835392431 L 2778867.791718525,1776926.262420042 L 2778835.592914702,1774161.1890914058 L 2778594.734465929,1771723.3654433552 L 2778150.544622956,1770549.261298093 L 2778951.36212369,1766834.2231311623 L 2777834.681151281,1758087.335892314 L 2777960.592113482,1754337.2505710016 L 2777043.6337257633,1752828.0895427035 L 2776962.9237512453,1750286.4607531403 L 2777286.906297854,1745230.7575660488 L 2777433.10298487,1744643.2440636605 L 2777520.4219797873,1744147.8447310622 L 2777709.912091477,1743734.8023395964 L 2778204.276334543,1743398.5519653677 L 2778067.016530427,1742729.3447962308 L 2777256.891004107,1742068.8633846703 L 2776032.266585366,1743506.73277175 L 2774273.864251201,1744437.2895394745 L 2772294.4262465658,1744977.0749412605 L 2770387.129021745,1745219.2099817414 L 2768354.858830276,1744928.1957362518 L 2764335.1015910185,1743312.8753550474 L 2762770.202944685,1743135.2998194427 L 2757013.3537575705,1741031.4090329853 L 2756142.008385817,1740267.2934027214 L 2741101.255679318,1734439.501739893 L 2737689.8171941293,1732530.887277019 L 2736433.573517993,1732853.0998809154 L 2735204.518780628,1733764.8542789451 L 2733446.2830035016,1734581.5388101223 L 2728090.44165778,1735936.4035582994 L 2726731.026762377,1736895.221114837 L 2725722.058358925,1735834.4109766497 L 2724816.1951440386,1736176.5977406579 L 2723849.9615044557,1737129.481292734 L 2723106.9267156813,1737765.5286373359 L 2723679.449054052,1736218.6245979518 L 2723817.4570606304,1735464.6763758957 L 2723734.4253571676,1734509.7270522434 L 2722386.6661911514,1737841.710218564 L 2719811.5551336245,1741216.1091427787 L 2714347.7283644406,1746146.212281734 L 2710961.0732698967,1747790.9124925218 L 2708478.061592809,1749708.7186441734 L 2705520.9807352917,1750293.3496924008 L 2698336.048381757,1751001.346958501 L 2695595.5073096673,1752773.9098710776 L 2692546.2623376814,1754729.14275814 L 2689704.2058700733,1754193.2753925314 L 2685816.917615441,1754650.4622035886 L 2682356.9251685455,1756986.81995168 L 2682146.4828145057,1756857.9918573091 L 2678091.0758500695,1760555.4599165109 L 2674537.3652283708,1762138.0514920647 L 2670430.5793639403,1762841.8495531129 L 2669066.2453970034,1762793.314411843 L 2667757.7312052525,1762272.4663375276 L 2664367.945050028,1760007.1348038435 L 2659047.0838800604,1761341.4339497352 L 2657942.89214361,1761313.0571637372 L 2655388.3389683077,1760468.0419736363 L 2654147.1132788826,1760242.9932437297 L 2652814.0173782734,1760476.986183938 L 2650657.3803252773,1760451.1649384324 L 2648377.1825081436,1759228.3174571253 L 2646818.6283501033,1760352.8718303074 L 2644908.410922452,1759192.7681966226 L 2644081.817225999,1758827.2830135704 L 2643096.621731678,1758719.9940384165 L 2641033.3666620315,1757690.1431035558 L 2640055.983782147,1757585.8873414895 L 2638852.9130507875,1758406.240091578 L 2638119.9062120505,1759594.2482848777 L 2637312.7045696937,1760416.393538572 L 2635891.4712594375,1760193.8847718341 L 2637161.099851847,1763066.0328265168 L 2637968.571294659,1764441.9759315988 L 2638526.882490704,1764972.3596419308 L 2643095.2423492526,1769444.1090804238 L 2645044.8309928626,1772076.3605633853 L 2646772.183591988,1774346.3694090648 L 2646697.918620092,1777755.3269115065 L 2648586.3303450467,1778820.6338757814 L 2651063.4719086005,1780390.0369622367 L 2653362.2482073214,1784850.5552591141 L 2653105.255630987,1786898.1529394856 L 2652808.830443429,1788775.4486170958 L 2654805.6063686446,1791144.7484681332 L 2657829.1822586237,1793248.0118522495 L 2658870.0505926404,1795751.1816665053 L 2661170.1836594497,1798968.375439054 L 2663277.554194377,1803550.818372905 L 2664457.0042899195,1806309.2680206725 L 2665762.0328860283,1811196.1005878765 L 2665833.08934739,1813879.9652605657 L 2665368.358574203,1815802.0852583027 L 2664536.1063748244,1817455.0558834812 L 2664664.9175915346,1818906.988703341 L 2666904.3936650413,1823369.8222056315 L 2667959.267733273,1826220.8931155023 L 2669344.634472101,1828784.4836315687 L 2670590.759202201,1829044.284539991 L 2673142.520980995,1828870.3087802809 L 2674189.6948893657,1831348.0039526294 L 2674280.8325987025,1831756.4547735732 L 2673289.507680271,1831231.5349575088 L 2671270.1001805845,1831211.797807891 L 2669148.8786158636,1831719.7165843288 L 2668857.409657647,1833779.23430938 L 2670725.1361420965,1839114.8084496178 L 2673084.7151052123,1844635.835485483 L 2673736.1587530603,1848259.8370689233 L 2673810.0241595646,1850953.2735111187 L 2673068.428522721,1854037.3363554755 L 2670349.7453032155,1855297.5673487813 L 2667338.327010153,1858373.8860476695 L 2667952.788513587,1859174.175882081 L 2668627.7572429013,1859411.282047715 L 2669361.393959546,1859549.9819668648 L 2670188.516046726,1860055.0017447225 L 2676764.9606734533,1868484.9901926424 L 2680086.36334344,1875760.017132066 L 2683316.2317023426,1881070.6824823138 L 2684317.4916413426,1886949.49719505 L 2685213.805033327,1893936.6184886235 L 2685742.6549350163,1900116.0628263494 L 2684508.9044329664,1904947.7566425323 L 2682832.0893527744,1907799.0109094055 L 2680869.979389344,1911619.3413528397 L 2678363.9116187794,1914961.76390873 L 2676202.8291949006,1916489.0097071151 L 2677805.006572442,1917497.5451971442 L 2679555.580798315,1916205.4704312058 L 2682071.779354234,1912651.7807885702 L 2685645.1243574503,1910336.9101775151 L 2687256.0441303,1908851.0781135538 L 2687073.4758971524,1907411.0383556222 L 2690634.852114071,1906649.6315020907 L 2698621.330052204,1902200.3588025325 L 2703186.021457348,1902508.2428753919 L 2700669.3477854207,1903306.2251807724 L 2698572.1558019742,1904329.4873737243 L 2693000.3337953417,1908852.5536045977 L 2692451.9244465735,1909952.2335320464 L 2692293.8971871375,1911552.50490871 L 2692490.3281393936,1913105.103625759 L 2692936.2922713924,1914436.7949911822 L 2693600.887525853,1915346.3958490656 L 2694445.956034778,1915681.0421666123 L 2694628.020559449,1916489.6018733832 L 2693515.725469988,1917234.92029551 L 2692970.959774778,1918700.9287516533 L 2693056.6466715904,1920277.058427568 L 2693888.9664119,1921348.6123332381 L 2692607.385324762,1921904.9358228128 L 2690170.9092820445,1918898.4307789146 L 2688360.7882295246,1918781.0479369438 L 2688209.7713639457,1918113.2188324826 L 2690034.1099176444,1917372.3078236482 L 2690560.998650316,1915585.35741414 L 2690183.1469420088,1913813.7848294785 L 2689284.5381799266,1913163.342055135 L 2687290.2216005763,1913835.706126492 L 2685701.0640639653,1914717.2028453145 L 2683074.5632115104,1917075.4790233157 L 2680082.910701828,1919040.486712132 L 2675746.0661583086,1919318.764465999 L 2670934.6905697677,1915878.639302219 L 2671487.142490906,1915191.669621659 L 2666211.5949602453,1914395.7247026267 L 2657749.731906038,1915513.2567199308 L 2655876.145220408,1915277.9001897501 L 2654264.3385157264,1914612.6851258748 L 2652641.3231480094,1914673.5013420577 L 2650598.475692208,1915879.8385798023 L 2650229.506663503,1916008.0981403613 L 2650081.0776414736,1916679.3000515534 L 2650282.3127365205,1917455.1923459906 L 2650665.1468861606,1918067.6720954832 L 2651059.7426028335,1918272.3672942878 L 2651889.606787312,1919048.088856675 L 2655011.194488917,1920924.8989577547 L 2656319.2543411497,1924198.5504866522 L 2657505.82090238,1929311.6565338448 L 2656595.5339751705,1934793.5415595039 L 2654975.00648015,1939559.13304955 L 2654526.606123972,1943115.24294766 L 2656267.6307779835,1943563.8417916622 L 2660329.508769258,1943042.039869571 L 2664007.6990500754,1942440.1047727724 L 2665522.7790175127,1940893.8144693524 L 2666085.505406052,1939367.0077784401 L 2666608.252881391,1939232.1877283808 L 2666595.1482066754,1941580.0529326529 L 2668021.8689539162,1941923.8710160335 L 2670856.3162412615,1941961.3739281949 L 2672147.9147408227,1941782.6468024612 L 2672302.190341968,1942454.5706520872 L 2673914.3171652704,1943645.4552896402 L 2675599.9849949153,1944651.5196465193 L 2678430.9364033714,1945900.6812536188 L 2682058.8961463356,1947750.974849303 L 2682440.910922003,1947895.0469833203 L 2683030.5463467245,1948199.9323440294 L 2683444.9789598654,1948247.4212994846 L 2683596.5312608583,1948910.7617588073 L 2683076.9601021167,1950550.1107598192 L 2682587.3560475195,1952953.8789753166 L 2682588.1926097646,1955306.7108655653 L 2683568.269572819,1956795.0424041625 L 2681582.4765457045,1957164.1679053013 L 2681096.3436712287,1959130.5810051004 L 2681211.163330959,1961877.9094956126 L 2681041.0742637673,1964614.7956994988 L 2686362.4361457494,1971315.8656596255 L 2689313.2186369365,1974132.6004607764 L 2692760.3881816,1975660.6534671714 L 2694538.449302965,1975643.9905173671 L 2698214.6816692073,1975028.2040859822 L 2699969.1749874847,1975307.2812597197 L 2703536.487053644,1976842.0982350446 L 2705171.892160968,1977891.7077164273 L 2706322.9069603942,1979231.6642357789 L 2703710.0402739337,1978146.2444579215 L 2699320.868763322,1976322.9851175628 L 2691880.2552180244,1977369.136549695 L 2690563.8445311463,1976728.9772026027 L 2688242.7140156617,1974062.383844298 L 2682815.9461853188,1969229.620960894 L 2676008.6956376024,1961107.543111003 L 2672724.28625648,1958771.2755782122 L 2671500.411068041,1957560.7882120833 L 2670559.5377606014,1955923.8084309557 L 2670284.727925935,1953825.3555030194 L 2669623.735213845,1950197.287102957 L 2669372.129454965,1947548.4409134681 L 2667579.9004999856,1945303.8639695093 L 2662979.8683865797,1945061.8047847878 L 2657982.2964634616,1945467.3738683078 L 2652613.1224992597,1947419.4186464867 L 2650793.0091595603,1946629.1949296112 L 2648812.2138682455,1945157.3006018742 L 2646018.883809941,1948083.5267417172 L 2642657.2559623187,1950630.9102887523 L 2640677.844152209,1951513.4952937688 L 2636973.1711929943,1951937.5344518193 L 2635414.640738189,1952934.8607253933 L 2635959.610467594,1955097.4888362929 L 2636942.06928162,1956781.526784259 L 2636973.5088083497,1961758.704219305 L 2637519.9921623114,1964079.60807496 L 2638226.623778653,1964979.0697550625 L 2639532.8288891385,1965953.6107866731 L 2642085.934597468,1967538.8975221189 L 2646893.568519979,1975542.698965942 L 2648198.7789266743,1982098.027032473 L 2648212.5769668967,1986428.1238971993 L 2649615.2657749355,1988606.1846095438 L 2650641.8679601043,1991417.3333604261 L 2655305.10636368,1996538.501891445 L 2657015.614753119,1999169.2119610552 L 2659659.7240410107,2002643.7325899126 L 2660961.783651183,2006644.9797559215 L 2662280.6059391927,2009919.04179276 L 2662405.605172163,2015544.187564493 L 2661924.7864858205,2017935.3767007843 L 2659666.1369788954,2021875.179586799 L 2659291.3422564003,2023115.8642363881 L 2660320.904291586,2023166.9466840867 L 2663814.2886701934,2021097.42675155 L 2670927.4898896683,2023576.258839314 L 2672786.494398577,2024536.4774500711 L 2674536.3826654367,2024258.382690508 L 2675281.5219775294,2022740.2611721286 L 2676084.808218552,2022274.9720864494 L 2677294.0652675256,2023022.632538226 L 2676990.180745627,2024606.4299123385 L 2675930.719231436,2026270.550843424 L 2677798.3692032285,2028108.1921956122 L 2680198.2733076573,2029831.4378793796 L 2681161.865799937,2030845.9858370873 L 2682939.5633496246,2031465.2078817997 L 2685691.26371352,2032372.3498358794 L 2687367.53914035,2034104.527160271 L 2688622.0836968394,2035585.5282809003 L 2691050.4108430976,2038207.8471083262 L 2691661.5621103067,2040040.0612535516 L 2691971.6267974796,2042132.4691348332 L 2693678.183881563,2044763.5593858445 L 2695152.357622835,2048727.7981316089 L 2705774.7320526997,2064616.4241133379 L 2723173.855019746,2092390.4611695649 L 2724765.2656867653,2093632.1032631162 L 2725396.228019881,2091952.7125915352 L 2726618.6667265324,2090965.3755290678 L 2729900.573852181,2089975.0869915548 L 2730085.9222565074,2090779.887460575 L 2729046.1201297743,2092390.3553437463 L 2728016.265746829,2093640.0959331177 L 2726701.034412261,2094562.5259675863 L 2723031.1835363293,2096022.5062585163 L 2721831.83012046,2097303.210004187 L 2721361.835361897,2099100.624061853 L 2721744.19384418,2101438.877014842 L 2723496.3566698213,2104203.9019530537 L 2727171.7887687413,2108610.168252275 L 2737656.505484867,2128709.227416537 L 2740345.327910721,2135165.28575648 L 2743055.554086309,2139708.9490983137 L 2745562.813215344,2145741.6654402316 L 2745858.1839188733,2146025.147407715 L 2746403.1822805954,2146226.4539495185 L 2745928.639774815,2143929.6045587054 L 2745706.3669298156,2143212.9217416495 L 2747979.0818134556,2145550.693344216 L 2749384.467029584,2146218.2192907548 L 2750379.549233135,2145215.626185309 L 2750883.742314295,2145087.654036046 L 2751038.9658604804,2145760.842512573 L 2750909.247382909,2146087.1828787075 L 2750718.80005085,2146778.264633117 L 2750687.322902538,2147545.4475984895 L 2751046.4006594163,2148106.3480618782 L 2751953.9680584,2148365.036902449 L 2752341.505528898,2147931.3804571563 L 2752529.076034802,2147273.6961222086 L 2752858.675365136,2146864.1148206843 L 2753745.874698238,2146988.5262853857 L 2754622.5471389713,2147604.688646027 L 2756032.753646196,2149189.5368187116 L 2754911.6914467495,2150302.3711081566 L 2754478.3933832636,2151762.7804596806 L 2754969.2937482116,2152881.865359775 L 2756624.122553221,2153016.8537634276 L 2758562.1282349327,2152726.7169923373 L 2760160.484625401,2152909.4681780417 L 2761640.4172701756,2153499.623786783 L 2763209.463371733,2154402.8076808997 L 2761807.716495809,2154658.6986670513 L 2759497.5748144747,2154124.7011177596 L 2757673.8535955586,2154204.1191537734 L 2757315.2345103947,2154117.922361572 L 2756856.949113515,2154196.6931166495 L 2755159.057974111,2155511.8184651765 L 2754767.6231659306,2156537.973683239 L 2754798.5954037737,2159683.545339814 L 2758931.800412242,2163279.4704264225 L 2758669.0864944933,2165777.423861395 L 2758121.1875928673,2164043.8016450796 L 2757271.6263323976,2162698.7660878394 L 2756578.7358215973,2162445.9448051294 L 2756486.955883855,2163987.7791869426 L 2754823.2698047506,2162080.924795499 L 2753291.152457373,2159479.390139859 L 2752039.891645371,2156629.639081206 L 2751211.5611424977,2153961.3308247337 L 2750445.4802494324,2152311.3879901934 L 2748981.6232797233,2150042.362721337 L 2747350.0543898027,2147997.8571948977 L 2746051.4794641873,2147028.7367597837 L 2762400.3001107476,2181876.6863656137 L 2763304.6117871637,2185849.7653592583 L 2764017.487027824,2193347.6190654617 L 2764978.648014112,2197134.36537521 L 2766773.880199179,2198267.7971912925 L 2766927.699158486,2198932.4002953027 L 2764049.0064266524,2200432.282802704 L 2763158.3423999962,2203800.1415738706 L 2762955.686866827,2207813.7527420637 L 2762136.5782468095,2211248.3963522357 L 2762867.306454079,2212581.85012378 L 2762959.714536459,2213835.6666534455 L 2762791.6709879627,2215127.9710621648 L 2762735.4847969892,2216568.95960585 L 2763522.264698974,2219883.658146912 L 2763386.880454028,2221027.912150459 L 2762888.4926904375,2221469.6838443778 L 2762809.8796254694,2222676.683492963 L 2762772.6223305427,2223879.9338414352 L 2762083.3350670068,2226121.958997463 L 2761992.223903152,2227810.1463657124 L 2762304.265204717,2229133.453321624 L 2762887.155378855,2232281.8221974457 L 2764601.3531359904,2235678.493593882 L 2764236.310413787,2238377.156581644 L 2764616.5781843252,2240656.263042759 L 2764610.606591938,2242267.240621443 L 2764817.0754252807,2244130.493921074 L 2764543.956757275,2247684.634153002 L 2764749.3349472806,2250207.1951738135 L 2764632.35062694,2252126.717817417 L 2765017.5959864305,2254116.225263895 L 2764818.6943580154,2256238.2471641605 L 2765260.701628796,2258811.3243692094 L 2765824.8074673107,2259953.2721663583 L 2767794.008863191,2260189.909180483 L 2772940.7975125196,2259754.1821200023 L 2774494.3188837115,2260061.7417325815 L 2775998.6789116617,2260680.686395162 L 2777373.693269213,2261491.4552811966 L 2767812.2867892077,2261067.0611238405 L 2765889.856955301,2261294.4343422353 L 2764878.938249691,2261684.780408192 L 2763628.2396821007,2262990.5234277067 L 2762910.595045601,2266902.2516242275 L 2763641.7887843745,2270002.741828379 L 2765458.229898881,2274701.101017456 L 2765633.525681925,2277919.3527446906 L 2766236.603279172,2278973.005193253 L 2767063.257620913,2279857.0798879634 L 2773887.6012157793,2283172.042234556 L 2777336.557905052,2285573.4994963016 L 2779238.863190149,2289333.0230807792 L 2780294.8849779246,2289766.225594055 L 2782327.565820271,2290239.292823529 L 2784541.5223673037,2290343.767236646 L 2786442.783077803,2291029.2834423715 L 2787307.6852462785,2291964.2930822913 L 2788707.4898389494,2294078.4642392173 L 2789658.3631681856,2294988.8042618358 L 2791263.313915699,2295673.6902681338 L 2792730.945971157,2295602.942188508 L 2795686.8295024326,2294939.003774761 L 2797303.1919246996,2295178.155794641 L 2800508.0960480897,2296390.05580491 L 2802151.9088036017,2296590.7967445995 L 2815007.869857623,2295491.327218388 L 2816523.2793158432,2295884.6718161637 L 2819016.31994679,2297253.25824825 L 2819835.2593685463,2297537.0838759155 L 2820473.793829146,2297531.667915631 L 2821864.011434381,2297250.254827858 L 2823473.991975664,2297488.3732116083 L 2826275.6411618497,2298628.67941224 L 2826756.677036271,2297408.894925545 L 2827107.553248287,2295579.726470518 L 2825798.5755831143,2290980.263873355 L 2825667.044396783,2289155.6359678805 L 2826503.5696831583,2288093.5161231156 L 2827798.3221221934,2288136.402714258 L 2829377.3718915386,2288446.281721304 L 2831083.672614505,2288198.773259531 L 2832475.015644026,2287163.2755602356 L 2833427.9591168943,2285662.834126843 L 2833714.2769937385,2283889.499295015 L 2833102.9831405026,2282044.8555645524 L 2831935.65708034,2280893.102377638 L 2830411.7869598726,2280125.111589672 L 2827729.1544049606,2279176.72205565 L 2824854.990926861,2277439.945971951 L 2820695.9933930137,2273583.402961498 L 2819484.825136773,2271820.070205037 L 2818903.83760757,2269832.314083713 L 2819374.6961707743,2267672.1927619195 L 2822002.7973724585,2265823.2926032497 L 2822416.9057440534,2264819.0898874514 L 2822223.916676737,2263350.2968933675 L 2821320.89806712,2260829.9382813075 L 2821249.0642397623,2260629.4596616393 L 2828097.7593703247,2258483.425015891 L 2831797.3062691614,2258632.5734427036 L 2831958.2194020553,2258639.1115628527 L 2835232.9470871,2260751.6771709663 L 2836319.4047216326,2261865.095684867 L 2837544.1761830365,2262675.9082121705 L 2838810.6085161264,2262930.167615594 L 2840058.4042210495,2262397.5332607026 L 2841567.166954255,2262067.31708344 L 2842641.711454909,2263290.7406846993 L 2843439.7474126676,2265007.0639279564 L 2844098.315675067,2266160.802535971 L 2845823.5680965707,2266389.969592851 L 2845388.4287072606,2263406.6492079543 L 2845233.8314462565,2260142.4836527766 L 2847797.161365211,2259513.032655106 L 2848498.5336417155,2260015.865655833 L 2848934.831805074,2260651.0438465346 L 2849447.395523928,2261155.511216074 L 2850356.869759582,2261232.960209313 L 2852511.7349927034,2260568.717894637 L 2857786.4335060557,2260577.186914256 L 2860316.3254400957,2261209.579329714 L 2861507.805972889,2260580.1851369855 L 2863385.7899026843,2258425.5632740273 L 2864645.9674508004,2257388.040603801 L 2868948.3585204016,2256158.9210499134 L 2866949.7070893017,2253047.098228467 L 2866775.2774335714,2252015.005359455 L 2867916.0870892457,2250966.013545741 L 2869313.093527939,2250481.457707907 L 2871090.5817436404,2250328.2155834427 L 2872870.1434268425,2250525.9718965907 L 2874286.714175057,2251114.4304459076 L 2874879.73928645,2251796.0070818737 L 2875128.811837812,2252512.3335526856 L 2875429.8365061292,2253124.8675023466 L 2876145.7872010716,2253505.911788769 L 2876766.659463047,2253352.259748003 L 2877799.5311164465,2252189.4948588125 L 2878568.1048825486,2251927.240523063 L 2879604.672433947,2251262.3815159514 L 2880325.7580581577,2249572.7977763405 L 2880691.825867081,2247501.7561592665 L 2880659.094121511,2245696.3475076584 L 2881926.9901449084,2246371.8845178303 L 2884367.0808519702,2248155.9187821033 L 2885619.1294614533,2248641.1941353865 L 2886886.143192851,2248568.9826999283 L 2889804.485455811,2247786.6168991635 L 2891314.6370303323,2247681.666815741 L 2897485.4979971386,2248319.323680949 L 2900497.6420018077,2249364.471803587 L 2901488.396654236,2250286.085068851 L 2902696.8934801426,2251410.69376876 L 2903250.6826204825,2253090.206897177 L 2903484.205261617,2256727.107196491 L 2903985.7788099274,2258203.8204370798 L 2904715.8069340223,2258705.046760894 L 2906155.1656999,2259367.8234404223 L 2907745.3128221487,2259836.6393047175 L 2908946.0557642756,2259757.2429738618 L 2911195.47652459,2257516.765961051 L 2913198.584191722,2254813.4428895735 L 2915492.25534655,2253054.046663956 L 2918630.857232718,2253656.284529646 L 2920815.9986466723,2254600.4660964147 L 2921457.4243784156,2254066.9984677397 L 2922461.816988934,2253231.977682016 L 2924103.5484740003,2251220.4352646824 L 2926270.313991906,2250236.9633861906 L 2931385.9970291,2249503.399125269 L 2933555.8597415294,2250261.0694454014 L 2934746.7230039146,2253384.7095619757 L 2937122.9703773134,2252380.854744909 L 2939114.04663173,2247129.631950012 L 2941382.588549328,2245849.7491729194 L 2947196.4385596598,2244786.711253582 L 2950122.577453718,2245023.375680534 L 2951683.5326424446,2247103.2656388637 L 2953480.373415894,2245825.750252515 L 2954301.1929254914,2244271.324374099 L 2954255.7063645925,2242400.149266299 L 2952623.6632298147,2237854.6675813943 L 2953106.463257814,2236946.688466402 L 2954506.7827516226,2236406.1166522754 L 2956456.4254797893,2235234.432427232 L 2955099.907992644,2233395.7249472165 L 2951288.814299457,2224956.974895114 L 2950734.3633642513,2224014.5138174905 L 2949969.149914301,2223242.8252601377 L 2949277.8743274137,2222319.3937994232 L 2949330.7351210457,2221320.0061392863 L 2949679.347303856,2220263.082997023 L 2949842.2099248683,2219156.7904375186 L 2949635.862657746,2217090.083391197 L 2949622.0676847715,2214868.5906302463 L 2950382.0607570326,2212879.3374178098 L 2952490.636418396,2211499.5552521804 L 2953384.213419288,2211546.6367758457 L 2954730.9090442965,2211895.1746070352 L 2956004.0079744323,2212421.9559152834 L 2956678.5487280358,2212967.7916462077 L 2957341.97404528,2213331.078734141 L 2958453.246250717,2213048.28701898 L 2964774.330304656,2210208.2613296667 L 2968452.018035992,2207865.0626703375 L 2971622.163364544,2204676.4721681993 L 2974326.0679352814,2200295.3865761934 L 2975138.98355856,2198435.2333421987 L 2975754.0754394745,2197185.123426231 L 2970706.054083159,2192299.828474455 L 2968142.2732198946,2190533.2228999296 L 2967400.73778396,2189545.8566086753 L 2967286.022114451,2188672.917861904 L 2967358.9616322974,2187899.562341164 L 2967174.50134285,2187182.8867672053 L 2963050.3300233902,2182861.1767924074 L 2962853.079810607,2181930.148108908 L 2960263.2300491827,2182302.5712538892 L 2959037.020704249,2182109.9533548267 L 2957807.6641001124,2181489.605924709 L 2958042.3913139827,2181384.780536911 L 2957959.6038884902,2180716.1193192615 L 2957690.1772810733,2179889.1507308343 L 2957369.52553296,2179331.8859289354 L 2957019.40562263,2179303.7393178637 L 2956054.887911598,2179728.8587983656 L 2955700.5452783904,2179701.723891691 L 2952280.557295016,2176091.8264287394 L 2949098.9641135857,2173968.7022288563 L 2945996.551205216,2172481.02318195 L 2940770.108139782,2171451.9895558655 L 2939920.429177326,2171084.166089708 L 2934548.278123294,2172201.732833302 L 2933045.5772749498,2172275.45326952 L 2931879.3073185636,2171427.514557543 L 2928060.7386370376,2167687.4157620287 L 2927111.6777826045,2166203.346576314 L 2926463.8038702616,2165427.0435265983 L 2923057.328526892,2163593.9612412937 L 2921710.555727468,2162464.914131575 L 2921241.9465674497,2161765.8834978305 L 2920889.1300245174,2159036.4119800143 L 2919801.5502652517,2157214.0673414543 L 2915552.4008486276,2153123.666595379 L 2914200.6905010412,2152261.2050657338 L 2911911.084016545,2152529.5265924614 L 2906955.339737949,2154136.740155898 L 2905082.324013509,2153654.756962451 L 2905044.2369328635,2153644.962481598 L 2904294.63541999,2151676.211191879 L 2903118.3338549137,2150452.079798658 L 2903001.521769694,2149044.072325336 L 2903550.7702001985,2147630.566592359 L 2905553.305245828,2144291.643626907 L 2906304.7928375066,2142091.833342148 L 2907158.317063744,2137276.8477290096 L 2907370.945720941,2134830.289892032 L 2907859.3689923915,2133772.796498833 L 2909025.22676221,2133166.6263150545 L 2909791.1960835084,2132328.3840236627 L 2909901.7299875757,2130798.8442039657 L 2909277.413873425,2129506.8305507996 L 2907842.939141514,2129380.4773990586 L 2907157.4383991593,2126656.805329367 L 2907110.608370119,2125915.24826283 L 2907146.8724766998,2124714.065565739 L 2906936.0108072245,2124127.360660745 L 2906586.9061603863,2123583.853784589 L 2906211.263681545,2122546.896850299 L 2905774.8905202555,2120442.5243730973 L 2905633.9757034606,2118858.6191746593 L 2905945.0538799465,2115080.238309942 L 2905856.8908865843,2111287.1198713155 L 2905622.9449414415,2109313.3173320936 L 2905346.0098536527,2107995.561451632 L 2904383.5562894223,2106281.222919126 L 2901742.030852599,2103197.8094247016 L 2900896.733371523,2101621.6217199014 L 2900675.099753056,2099686.2492340165 L 2901160.3127650255,2098418.58556262 L 2901885.1321600284,2097225.8502011728 L 2902447.269528538,2095547.408019009 L 2902518.0830807798,2093569.4151510072 L 2902016.0204532547,2092308.833337401 L 2899513.682514518,2089998.7227521574 L 2897197.64473495,2086536.6235803128 L 2896949.986399374,2082886.40209834 L 2898225.9216531096,2079307.3945523754 L 2900476.7800979,2076048.6160866274 L 2898484.1611701325,2073763.5742411164 L 2897594.3655707766,2073172.550485538 L 2893464.5035419487,2071338.4736382125 L 2892823.455580091,2070867.5813480255 L 2892344.8291091463,2070095.4686296876 L 2892098.763770831,2069175.5581346536 L 2891870.9397887755,2068323.8273961623 L 2891491.732718755,2067728.8175360186 L 2889743.659033275,2067016.7830393757 L 2888109.876568066,2067271.7600738255 L 2886513.615241568,2067794.7023778334 L 2885938.379229012,2067828.2517247964 L 2884856.000431463,2067891.5206529102 L 2880786.002836761,2066361.680139719 L 2879151.229153283,2066031.576392033 L 2878193.5843242193,2065193.7601184088 L 2876853.8425905784,2062869.0657168606 L 2875880.627402288,2061764.7378836863 L 2876237.682833843,2060019.8303596214 L 2876064.7761401385,2056181.7111122254 L 2876747.4010437373,2054479.896232844 L 2877692.4443744,2053951.8155246992 L 2879834.755308532,2053132.1682479167 L 2880660.1280319644,2052590.9019806427 L 2881384.8887732597,2051585.2610221063 L 2882144.3918522596,2049526.396496504 L 2883514.990292046,2046776.4134886407 L 2885620.7316583144,2039966.9550910324 L 2883691.1801032694,2037898.8223995967 L 2883060.481638868,2036832.8592010378 L 2882973.01515907,2035619.7607872945 L 2882445.093088901,2034724.190711012 L 2881404.7761995974,2032154.5614618396 L 2881063.367377843,2031791.9696452615 L 2880124.5333310785,2031360.0228141795 L 2879777.79422547,2030928.2327997405 L 2879659.1683875755,2030309.405510919 L 2879731.5741587477,2029147.9739302476 L 2879602.123271222,2028607.9544875766 L 2879261.8419601526,2027681.5104260426 L 2878822.39716104,2025879.3835946985 L 2878320.9958083844,2024895.755589036 L 2875565.9657848254,2022224.5254393385 L 2874673.289060014,2021935.1491289113 L 2872592.4489190257,2021571.0809306188 L 2871825.9734219178,2021170.9682887269 L 2870916.67434421,2019840.5826848308 L 2870792.115504697,2018647.6997784062 L 2870944.6588424407,2017567.5821719435 L 2870886.592469858,2016629.6323537054 L 2870357.413999064,2015670.3078173378 L 2868990.1540613337,2014121.9193570015 L 2868393.807785506,2013189.8084224376 L 2868158.9993156684,2012186.6534222786 L 2868252.6435544556,2011390.1321913993 L 2868178.882341913,2010573.243526672 L 2866731.8070118963,2008467.9460336906 L 2865399.2815493653,2008233.1781039094 L 2852750.2705601538,2009537.6215337915 L 2850163.992158655,2010260.0046271356 L 2848580.5333573176,2011802.4920078015 L 2847052.6038601035,2011681.4091869025 L 2843733.57420085,2012565.2956238405 L 2842102.8404650604,2012604.50456465 L 2840600.3095753295,2012326.177269825 L 2839394.7446369575,2012272.67773551 L 2821507.9879962085,2017384.5280476443 L 2821566.285094651,2017075.4437005285 L 2821880.995611769,2015408.0189408106 L 2822990.369958242,2007241.0005851833 L 2824204.539382132,2005507.9136219732 L 2825991.4615691537,2001582.4904402106 L 2827110.9357648497,1999908.1357444287 L 2829633.7140858676,1997763.7247997632 L 2830160.289867238,1996658.5644502107 L 2830456.8920082795,1994096.794013665 L 2831516.011665161,1992749.6597963506 L 2833119.271592132,1991475.4296376754 L 2836450.8838538104,1989710.3880128206 L 2836844.767089867,1988484.5360835195 L 2836350.3413506807,1986173.119740135 L 2835391.7204119246,1983799.5587417737 L 2834402.967710123,1982390.8084399342 L 2833642.777685339,1980964.0817022983 L 2833182.8355754116,1978556.6805299376 L 2833098.6130048386,1976155.7468248557 L 2833452.879734462,1974733.6955591035 L 2834772.8186333203,1973104.5350787228 L 2837881.3424889417,1967007.8511472978 L 2836330.187969134,1965288.818015019 L 2835733.2510079853,1963042.9862052284 L 2835929.1632834463,1960718.8905050317 L 2836752.628522152,1958748.5646079583 L 2838602.567030366,1957092.7894051946 L 2840817.363425679,1955934.710362462 L 2842611.0239484757,1954551.8671418861 L 2843215.7582299695,1952240.405544952 L 2842809.1894245907,1951183.6267580744 L 2841444.440739179,1949279.5356371074 L 2841374.236923557,1948344.7938217355 L 2842063.062783383,1947273.1897991577 L 2843171.099655646,1946345.8107929989 L 2844414.37483967,1945827.7607294128 L 2845517.963143601,1945984.734660439 L 2847794.9957332984,1946749.688623036 L 2850075.421089491,1946490.5689262284 L 2852156.542509874,1945374.3118288992 L 2853831.321509825,1943592.001962452 L 2854921.323799875,1941967.3252688276 L 2855707.813025211,1939752.3122609758 L 2855806.451324825,1937506.6938603327 L 2854840.184969811,1935785.4992580542 L 2855650.837713958,1934800.0518035623 L 2855585.271769149,1933785.6357802362 L 2854892.048708671,1932794.0320387108 L 2853836.991432707,1931893.7787431292 L 2849867.6087486,1927022.3848573747 L 2847430.9221956013,1924828.4717161409 L 2845290.6546083745,1923725.8202043353 L 2846029.0139236916,1921330.6295941987 L 2845253.0395970643,1919742.6634734564 L 2845035.9591561137,1918170.507605875 L 2844248.684752423,1917893.2345559655 L 2843033.376637905,1917277.1154143077 L 2841782.315283155,1916443.5276445285 L 2840271.122022542,1916089.2559183096 L 2836175.8690423197,1916133.053143662 L 2835216.895367833,1915629.2676471672 L 2834530.7343904837,1914710.6821329538 L 2833100.2248616484,1913617.5514510372 L 2831438.0533861904,1912762.9341540644 z" /></g></svg>